<svg data-v-fde0c5aa="" xmlns="http://www.w3.org/2000/svg" viewBox="0 0 300 300" class="font"><!----><defs data-v-fde0c5aa=""><!----></defs><rect data-v-fde0c5aa="" fill="transparent" x="0" y="0" width="300px" height="300px" class="logo-background-square"></rect><defs data-v-fde0c5aa=""><linearGradient data-v-fde0c5aa="" gradientTransform="rotate(25)" id="9e4b0a15-089f-44f9-896c-29008ae12a49" x1="0%" y1="0%" x2="100%" y2="0%"><stop data-v-fde0c5aa="" offset="0%" stop-color="#920DE9" stop-opacity="1"></stop><stop data-v-fde0c5aa="" offset="100%" stop-color="#1536F1" stop-opacity="1"></stop></linearGradient></defs><g data-v-fde0c5aa="" id="796a5561-27b0-4bc7-a04a-57b90bb0b94e" fill="url(#9e4b0a15-089f-44f9-896c-29008ae12a49)" transform="matrix(16.03498511065576,0,0,16.03498511065576,35.99125372233606,40.48105674063179)"><path d="M3.82 1.93L3.82 1.93L3.82 1.93Q5.87 1.93 6.41 3.21L6.41 3.21L6.41 3.21Q6.56 3.53 6.56 3.63L6.56 3.63L5.69 3.63L5.69 3.89L6.62 3.89L6.62 3.88L6.62 3.88Q6.62 3.81 6.56 3.63L6.56 3.63L8.13 3.63L8.13 3.89L6.64 3.89L6.64 3.91L6.64 3.91Q6.75 4.46 6.80 5.09L6.80 5.09L6.80 5.09Q6.80 5.13 5.00 5.22L5.00 5.22L5.00 5.21L5.00 5.21Q5.00 3.58 3.88 3.58L3.88 3.58L3.69 3.58L3.69 3.58Q2.85 3.58 2.67 4.29L2.67 4.29L2.67 4.29Q2.52 4.89 2.52 5.87L2.52 5.87L2.52 7.20L2.50 7.40L1.88 7.40L1.88 7.71L2.50 7.71L2.50 10.08L5.14 10.08L5.14 7.62L6.65 7.62L6.65 10.08L5.81 10.08L5.81 11.60L4.05 11.60L4.05 11.73L2.69 11.73L2.69 11.60L1.30 11.60L1.30 10.84L2.22 10.84L2.22 10.51L0.84 10.51L0.84 9.39L0.25 9.39L0.25 8.01L0.56 8.01L0.56 8.01Q0.54 7.15 0.54 6.66L0.54 6.66L0.54 6.66Q0.54 4.42 0.76 3.84L0.76 3.84L0.76 3.84Q0.96 3.17 1.42 2.69L1.42 2.69L1.42 2.69Q2.23 1.93 3.82 1.93ZM2.63 9.59L2.63 9.59L2.71 9.59L2.71 9.93L2.91 9.93L2.91 10.04L2.63 10.04L2.63 10.04Q2.60 10.04 2.60 10.00L2.60 10.00L2.60 9.63L2.60 9.63Q2.60 9.59 2.63 9.59ZM4.69 9.60L4.69 9.59L4.79 9.59L4.79 9.59Q4.87 9.66 4.87 9.72L4.87 9.72L4.87 9.72Q4.89 9.72 4.99 9.59L4.99 9.59L5.07 9.59L5.07 9.63L5.07 9.63Q4.96 9.78 4.96 9.84L4.96 9.84L4.96 9.84Q4.98 9.84 5.09 10.01L5.09 10.01L5.09 10.04L4.99 10.04L4.87 9.91L4.87 9.91Q4.81 10.02 4.78 10.04L4.78 10.04L4.68 10.04L4.68 10.04Q4.71 9.97 4.83 9.80L4.83 9.80L4.69 9.60ZM6.04 10.19L6.04 10.19L6.04 10.19Q6.21 10.23 6.21 10.28L6.21 10.28L6.21 10.35L6.14 10.35L6.08 10.28L6.01 10.28L6.01 10.28Q5.97 10.29 5.97 10.32L5.97 10.32L5.97 10.35L5.97 10.35Q6.23 10.40 6.23 10.46L6.23 10.46L6.23 10.51L6.23 10.51Q6.23 10.64 6.08 10.64L6.08 10.64L6.01 10.64L6.01 10.64Q5.92 10.64 5.87 10.55L5.87 10.55L5.87 10.48L5.96 10.48L5.96 10.48Q5.96 10.56 6.06 10.56L6.06 10.56L6.08 10.56L6.08 10.56Q6.10 10.56 6.13 10.51L6.13 10.51L6.13 10.51Q6.13 10.49 5.89 10.40L5.89 10.40L5.88 10.36L5.88 10.28L5.88 10.28Q5.88 10.23 6.04 10.19ZM7.61 1.93L7.61 1.93L10.39 1.93L10.39 1.93Q12.24 1.93 12.75 2.87L12.75 2.87L12.75 2.87Q13.04 3.36 13.04 4.21L13.04 4.21L13.04 4.89L13.04 4.89Q13.04 5.86 12.20 6.45L12.20 6.45L12.20 6.45Q12.48 6.50 12.92 6.89L12.92 6.89L13.13 6.89L13.13 6.89Q13.55 7.31 13.67 7.71L13.67 7.71L13.67 7.71Q13.71 7.85 13.71 7.86L13.71 7.86L13.97 7.86L13.97 8.03L13.08 8.03L13.08 7.86L11.26 7.86L11.26 7.34L9.47 7.34L9.47 10.19L10.59 10.19L10.59 9.99L11.26 9.99L11.26 8.03L13.08 8.03L13.08 9.75L13.29 9.75L13.29 10.84L12.68 10.84L12.68 11.09L13.29 11.09L13.29 11.55L10.97 11.55L10.97 11.73L8.44 11.73L8.44 11.55L7.90 11.55L7.90 10.04L8.65 10.04L8.65 9.64L7.90 9.64L7.90 9.64Q7.88 8.49 7.88 7.93L7.88 7.93L7.88 7.21L7.24 7.21L7.24 7.02L7.88 7.02L7.88 6.64L7.57 6.64L7.57 1.97L7.57 1.97Q7.58 1.93 7.61 1.93ZM9.82 3.59L9.50 3.59L9.50 6.02L9.92 6.02L9.92 6.02Q10.66 6.02 10.89 5.77L10.89 5.77L10.89 5.77Q11.12 5.57 11.12 4.70L11.12 4.70L11.12 4.66L11.12 4.66Q11.12 3.91 10.89 3.76L10.89 3.76L10.89 3.76Q10.73 3.59 9.82 3.59L9.82 3.59ZM8.80 7.02L7.90 7.02L7.90 7.21L8.80 7.21L8.80 7.02ZM7.53 7.69L7.53 7.24L7.86 7.24L7.86 7.31L7.86 7.31Q7.86 7.34 7.83 7.34L7.83 7.34L7.62 7.34L7.62 7.41L7.81 7.41L7.81 7.41Q7.84 7.42 7.84 7.44L7.84 7.44L7.84 7.48L7.84 7.48Q7.84 7.51 7.81 7.51L7.81 7.51L7.62 7.51L7.62 7.59L7.86 7.59L7.86 7.66L7.86 7.66Q7.86 7.69 7.83 7.69L7.83 7.69L7.53 7.69ZM10.34 8.03L10.34 7.86L11.26 7.86L11.26 8.03L10.34 8.03ZM13.35 8.06L13.35 8.06L13.41 8.06L13.41 8.06Q13.44 8.07 13.44 8.09L13.44 8.09L13.44 8.38L13.44 8.38Q13.41 8.53 13.29 8.53L13.29 8.53L13.29 8.53Q13.13 8.50 13.13 8.38L13.13 8.38L13.13 8.36L13.13 8.36Q13.14 8.33 13.17 8.33L13.17 8.33L13.20 8.33L13.20 8.33Q13.23 8.33 13.25 8.43L13.25 8.43L13.32 8.43L13.32 8.09L13.32 8.09Q13.32 8.06 13.35 8.06ZM13.20 8.65L13.20 8.65L13.34 8.65L13.34 8.65Q13.57 8.65 13.57 8.90L13.57 8.90L13.57 8.90Q13.57 9.07 13.35 9.10L13.35 9.10L13.17 9.10L13.17 8.68L13.17 8.68Q13.17 8.65 13.20 8.65ZM13.34 8.75L13.29 8.75L13.29 9.00L13.35 9.00L13.35 9.00Q13.45 9.00 13.45 8.90L13.45 8.90L13.45 8.87L13.45 8.87Q13.45 8.75 13.34 8.75L13.34 8.75ZM13.20 9.24L13.20 9.24L13.45 9.24L13.45 9.24Q13.49 9.24 13.49 9.27L13.49 9.27L13.49 9.34L13.29 9.34L13.29 9.42L13.45 9.42L13.45 9.50L13.29 9.50L13.29 9.65L13.29 9.65Q13.29 9.69 13.25 9.69L13.25 9.69L13.17 9.69L13.17 9.27L13.17 9.27Q13.17 9.24 13.20 9.24ZM10.86 9.57L10.86 9.50L11.21 9.50L11.21 9.58L10.99 9.86L11.22 9.86L11.22 9.92L11.22 9.92Q11.22 9.95 11.19 9.95L11.19 9.95L10.88 9.95L10.88 9.95Q10.84 9.95 10.84 9.92L10.84 9.92L10.84 9.87L11.06 9.60L10.89 9.60L10.89 9.60Q10.86 9.60 10.86 9.57L10.86 9.57ZM9.52 9.86L9.52 9.79L9.54 9.79L9.54 9.79Q9.85 9.88 9.85 9.92L9.85 9.92L9.85 9.95L9.85 9.95Q9.82 10.00 9.54 10.10L9.54 10.10L9.52 10.07L9.52 10.06L9.52 10.06Q9.52 10.01 9.72 9.95L9.72 9.95L9.72 9.95Q9.72 9.92 9.52 9.86L9.52 9.86Z"></path></g><!----><!----></svg>